<svg xmlns="http://www.w3.org/2000/svg" viewBox="0 0 2737.6 5000"><path d="M899.09 1967.1q-11.74.124-23.337.828c-31.61 1.91-62.389 6.987-92.084 14.794-1.647-8.236 3.578-36.7 1378.3 943.86-1855.5-1275.2-1837.8-1332.1-4.918-24.666-1855.5-1275.2-1837.8-1332.1-4.91-24.669-1855.5-1275.2-1837.8-1332.1-4.9-24.67-1855.5-1275.2-1837.8-1332.1-4.889-24.674-1855.5-1275.2-1837.8-1332.1-4.877-24.674-1855.5-1275.2-1837.8-1332.1-4.866-24.678-1855.5-1275.2-1837.8-1332.1-4.852-24.68-1855.5-1275.2-1837.8-1332.1-4.839-24.684-1855.5-1275.2-1837.7-1332.1-4.823-24.686-1855.5-1275.2-1837.7-1332.1-4.808-24.69-1855.5-1275.2-1837.7-1332.1-4.79-24.693-1855.5-1275.2-1837.7-1332.1-4.772-24.695-1855.5-1275.2-1837.7-1332.1-4.752-24.7-1855.5-1275.2-1837.7-1332.1-4.732-24.704-1855.5-1275.2-1837.6-1332.1-4.71-24.708-1391.6-956.42-1386.3-985.04-1387.9-993.23 5.85-5.967 25.98-30.095 1400.7 950.46-1855.5-1275.2-1815.7-1325.7 17.227-18.3-1855.5-1275.2-1816-1326 16.95-18.556-1855.5-1275.2-1816.3-1326.2 16.654-18.822-1855.5-1275.2-1816.6-1326.5 16.33-19.103-1855.5-1275.2-1816.9-1326.8 15.986-19.395-1855.5-1275.2-1817.3-1327.1 15.616-19.69-1855.5-1275.2-1817.7-1327.4 15.226-19.995-1855.5-1275.2-1818.1-1327.7 14.814-20.302-1855.5-1275.2-1818.5-1328 14.382-20.61-1855.5-1275.2-1819-1328.3 13.932-20.917-1855.5-1275.2-1819.5-1328.6 13.464-21.221-1855.5-1275.2-1819.9-1328.9 12.982-21.52-1855.5-1275.2-1820.4-1329.2 12.486-21.81-1855.5-1275.2-1820.9-1329.5 11.977-22.093-1855.5-1275.2-1821.5-1329.8 11.46-22.367-1855.5-1275.2-1822-1330 10.935-22.628-1855.5-1275.2-1822.5-1330.3 10.405-22.876-1855.5-1275.2-1823.1-1330.5 9.871-23.111-1855.5-1275.2-1823.6-1330.7 9.337-23.333-1855.5-1275.2-1824.1-1331 8.802-23.54-1855.5-1275.2-1824.7-1331.1 8.27-23.731-1855.5-1275.2-1825.2-1331.3 7.743-23.91-1855.5-1275.2-1825.7-1331.5 7.221-24.072-1855.5-1275.2-1826.2-1331.6 6.706-24.22-1855.5-1275.2-1826.7-1331.8 6.2-24.356-1855.5-1275.2-1827.2-1331.9 5.7-24.476-1855.5-1275.2-1827.7-1332 5.215-24.584-1855.5-1275.2-1828.2-1332.1 4.738-24.681-1855.5-1275.2-1828.7-1332.2 4.273-24.766-1855.5-1275.2-1829.1-1332.3 3.819-24.84-1855.5-1275.2-1829.5-1332.3 3.379-24.903-1855.5-1275.2-1830-1332.4 2.95-24.959-1855.5-1275.2-1830.4-1332.4 2.533-25.004-1855.5-1275.2-1830.8-1332.5 2.13-25.04-1855.5-1275.2-1831.2-1332.5 1.737-25.07-1855.5-1275.2-1831.6-1332.5 1.36-25.094-1855.5-1275.2-1831.9-1332.5.991-25.112-1855.5-1275.2-1832.3-1332.5.637-25.124-1855.5-1275.2-1832.6-1332.5.293-25.13-1855.5-1275.2-1833-1332.6-.04-25.153-1855.5-1275.2-1833.1-1332.3-.151-24.905-1855.5-1275.2-1833.5-1332.3-.546-24.9-1855.5-1275.2-1833.9-1332.3-.941-24.888-1855.5-1275.2-1834.3-1332.3-1.343-24.869-1855.5-1275.2-1834.7-1332.3-1.75-24.844-1855.5-1275.2-1835.1-1332.2-2.163-24.812-1855.5-1275.2-1835.5-1332.2-2.585-24.77-1855.5-1275.2-1835.9-1332.1-3.016-24.722-1855.5-1275.2-1836.4-1332.1-3.458-24.664-1855.5-1275.2-1836.8-1332-3.914-24.596-1855.5-1275.2-1837.3-1331.9-4.386-24.516-1855.5-1275.2-1837.8-1331.8-4.877-24.424-1855.5-1275.2-1838.3-1331.7-5.391-24.314-1855.5-1275.2-1838.9-1331.6-5.932-24.188-1855.5-1275.2-1839.4-1331.5-6.505-24.04-1855.5-1275.2-1840-1331.3-7.117-23.867-1855.5-1275.2-1840.7-1331.1-7.776-23.659-1855.5-1275.2-1841.4-1330.8-8.495-23.41-1855.5-1275.2-1842.2-1330.5-9.285-23.11-1855.5-1275.2-1843.1-1330.1-10.167-22.736-1855.5-1275.2-1844.1-1329.7-11.165-22.26-1855.5-1275.2-1845.2-1329.1-12.316-21.643-1855.5-1275.2-1846.6-1328.2-13.666-20.815-1855.5-1275.2-1848.2-1327.1-15.28-19.656-1855.5-1275.2-1850.2-1325.4-17.239-17.954-1855.5-1275.2-1396.2-979.56-1402.8-983.85-15.22-9.874-30.823-15.329-46.553-15.866-147.22-3.972-319.09 361.14-313.33 686.9 1.316 99.453 30.954 300.82 75.106 554.33C322.681 1550.17.091 1855.57.091 2256.98c-2.64 219.76 73.657 475.62 244.92 645.14a673 673 0 0 0 18.3 17.447 661 661 0 0 0 18.947 16.74 649 649 0 0 0 19.58 15.996 640 640 0 0 0 20.192 15.215c6.812 4.925-428.95-324.49 1404 982.93-1855.5-1275.2-1811.6-1293.9 21.341 13.556-1855.5-1275.2-1811.1-1294.7 21.871 12.684-1855.5-1275.2-1810.6-1295.6 22.367 11.789-1855.5-1275.2-1810.1-1296.5 22.825 10.873-1855.5-1275.2-1809.7-1297.5 23.245 9.945-1855.5-1275.2-1809.3-1298.4 23.624 9.008-1855.5-1275.2-1809-1299.3 23.962 8.066-1855.5-1275.2-1808.7-1300.3 24.257 7.127-1855.5-1275.2-1808.4-1301.2 24.513 6.193-1855.5-1275.2-1808.2-1302.1 24.728 5.27-1855.5-1275.2-1808-1303.1 24.904 4.364-1855.5-1275.2-1807.9-1303.9 25.044 3.474-1855.5-1275.2-1807.8-1304.8 25.148 2.607-1855.5-1275.2-1807.7-1305.6 25.222 1.765-1855.5-1275.2-1807.7-1306.5 25.266.947-1855.5-1275.2-1807.6-1307.3 25.29.158-1855.5-1275.2-1809-1307.8 23.926-.422-1855.5-1275.2-1809-1308.4 23.908-1.028-1855.5-1275.2-1809.1-1309.1 23.872-1.658-1855.5-1275.2-1809.1-1309.7 23.817-2.315-1855.5-1275.2-1809.2-1310.4 23.741-2.998-1855.5-1275.2-1809.3-1311.1 23.641-3.706-1855.5-1275.2-1809.4-1311.9 23.514-4.44-1855.5-1275.2-1809.6-1312.6 23.358-5.197-1391.6-956.42-1367.6-972.4-1360-974.5 46.94 267.47 78.286 478.59 78.112 576 1.277 298.67-291.89 388.22-433.75 309.81-7.56-4.18-471.05-352.85 1361.9 954.56-1855.5-1275.2-1851.7-1324.7-18.76-17.244-1855.5-1275.2-1848.2-1327.8-15.306-20.364-1855.5-1275.2-1844-1330.3-11.088-22.933-1855.5-1275.2-1839.4-1332-6.515-24.63-1391.6-956.42-1385.3-985.09-1385.3-993.92 0 0-.284-1.245 1.745-7.496a191 191 0 0 0 19.282.986c8.514 0 33.624-13.689 1408.3 966.87-1855.5-1275.2-1808.2-1312.4 24.677-4.971-1855.5-1275.2-1809.1-1315.6 23.794-8.219-1855.5-1275.2-1810.4-1318.7 22.491-11.307-1855.5-1275.2-1812.1-1321.6 20.808-14.169-1855.5-1275.2-1814.1-1324.2 18.782-16.762-1855.5-1275.2-1816.5-1326.5 16.451-19.056-1855.5-1275.2-1819.1-1328.4 13.848-21.023-1855.5-1275.2-1821.9-1330.1 11.008-22.64-1855.5-1275.2-1824.9-1331.3 7.977-23.876-1855.5-1275.2-1828.1-1332.1 4.815-24.71-1855.5-1275.2-1831.3-1332.5 1.6-25.124-1855.5-1275.2-1834.5-1332.5-1.6-25.126-1855.5-1275.2-1837.7-1332.1-4.813-24.712-1855.5-1275.2-1840.9-1331.3-7.975-23.879-1855.5-1275.2-1843.9-1330.1-11.007-22.643-1855.5-1275.2-1846.8-1328.4-13.847-21.027-1855.5-1275.2-1849.4-1326.5-16.45-19.059-1855.5-1275.2-1851.7-1324.2-18.782-16.765-1855.5-1275.2-1396.8-978.43-1404-982.7-28.245-16.629-61.074-26.157-96.088-26.157-59.528 0-112.38 27.606-154.04 64.466-42.498 37.607-77.566 103.39-78.787 230.49 0 66.257 33.179 127.65 85.885 177.84a384 384 0 0 0 18.956 16.877 415 415 0 0 0 19.99 15.64c6.763 4.97-428.85-324.45 1404.1 982.96-1855.5-1275.2-1811.3-1294.2 21.647 13.254-1855.5-1275.2-1810.6-1295.3 22.315 12.096-1855.5-1275.2-1810-1296.5 22.898 10.953-1855.5-1275.2-1809.5-1297.6 23.407 9.817-1855.5-1275.2-1809.1-1298.7 23.852 8.68-1855.5-1275.2-1808.7-1299.9 24.238 7.535-1855.5-1275.2-1808.4-1301 24.569 6.374-1855.5-1275.2-1808.1-1302.2 24.847 5.187-1855.5-1275.2-1807.9-1303.4 25.07 3.967-1855.5-1275.2-1807.7-1304.7 25.239 2.706-1855.5-1275.2-1807.6-1306 25.344 1.396-1855.5-1275.2-1807.5-1307.4 25.382.03-1855.5-1275.2-1807.6-1308.8 25.343-1.4-1855.5-1275.2-1807.7-1310.3 25.215-2.898-1855.5-1275.2-1807.9-1311.9 24.985-4.464-1855.5-1275.2-1808.3-1313.5 24.637-6.097-1855.5-1275.2-1808.8-1315.2 24.154-7.793-1855.5-1275.2-1809.4-1316.9 23.52-9.534-1855.5-1275.2-1810.2-1318.7 22.723-11.302-1855.5-1275.2-1811.2-1320.5 21.755-13.068-1855.5-1275.2-1812.3-1322.2 20.618-14.796-1855.5-1275.2-1813.6-1323.9 19.324-16.451-1855.5-1275.2-1815-1325.4 17.896-17.993-1855.5-1275.2-1816.6-1326.8 16.367-19.396-1855.5-1275.2-1818.2-1328 14.775-20.634-1855.5-1275.2-1819.8-1329.1 13.16-21.7-1855.5-1275.2-1821.4-1330 11.557-22.596-1855.5-1275.2-1822.9-1330.7 9.997-23.328-1855.5-1275.2-1824.4-1331.3 8.504-23.914-1855.5-1275.2-1825.8-1331.8 7.088-24.371-1855.5-1275.2-1827.2-1332.1 5.76-24.72-1855.5-1275.2-1828.4-1332.4 4.525-24.975-1855.5-1275.2-1829.6-1332.6 3.376-25.155-1855.5-1275.2-1830.6-1332.7 2.315-25.277-1855.5-1275.2-1831.6-1332.8 1.334-25.348-1855.5-1275.2-1832.5-1332.8.43-25.39-1855.5-1275.2-1833.4-1332.7-.499-25.288-1855.5-1275.2-1834.5-1332.7-1.619-25.245-1855.5-1275.2-1835.2-1332.6-2.28-25.194-1855.5-1275.2-1835.7-1332.6-2.727-25.15-1855.5-1275.2-1836-1332.5-3.055-25.113-1855.5-1275.2-1836.2-1332.5-3.307-25.08-1855.5-1275.2-1836.4-1332.5-3.51-25.051-1855.5-1275.2-1836.6-1332.4-3.675-25.03-1855.5-1275.2-1836.7-1332.4-3.815-25.008-1855.5-1275.2-1836.9-1332.4-3.933-24.99-1855.5-1275.2-1837-1332.4-4.037-24.974-1855.5-1275.2-1837.1-1332.4-4.126-24.96-1855.5-1275.2-1837.1-1332.4-4.206-24.945-1855.5-1275.2-1837.2-1332.3-4.276-24.934-1855.5-1275.2-1837.3-1332.3-4.34-24.923-1855.5-1275.2-1837.3-1332.3-4.396-24.913-1855.5-1275.2-1837.4-1332.3-4.448-24.904-1855.5-1275.2-1837.4-1332.3-4.495-24.894-1855.5-1275.2-1837.5-1332.3-4.537-24.887-1855.5-1275.2-1837.5-1332.3-4.577-24.881-1855.5-1275.2-1837.5-1332.3-4.613-24.873-1855.5-1275.2-1837.6-1332.3-4.646-24.868-1391.6-956.42-1386.3-985.06-1387.9-993.41 8.016-3.013 32.122-21.47 1406.8 959.09-1855.5-1275.2-1809.7-1317.8 23.199-10.422-1855.5-1275.2-1810.2-1318.8 22.724-11.42-1855.5-1275.2-1810.7-1319.8 22.19-12.423-1855.5-1275.2-1811.3-1320.8 21.599-13.426-1855.5-1275.2-1812-1321.8 20.948-14.42-1855.5-1275.2-1812.7-1322.8 20.239-15.398-1855.5-1275.2-1813.5-1323.8 19.475-16.355-1855.5-1275.2-1814.3-1324.7 18.658-17.28-1855.5-1275.2-1815.1-1325.6 17.794-18.17-1855.5-1275.2-1816-1326.4 16.886-19.015-1855.5-1275.2-1817-1327.2 15.94-19.814-1855.5-1275.2-1818-1328 14.966-20.562-1855.5-1275.2-1819-1328.7 13.963-21.255-1855.5-1275.2-1820-1329.3 12.942-21.891-1855.5-1275.2-1821-1329.9 11.908-22.471-1855.5-1275.2-1822.1-1330.4 10.864-22.994-1855.5-1275.2-1823.1-1330.9 9.816-23.46-1855.5-1275.2-1824.2-1331.3 8.767-23.872-1855.5-1275.2-1825.2-1331.6 7.72-24.231-1855.5-1275.2-1826.2-1332 6.68-24.54-1855.5-1275.2-1827.3-1332.2 5.645-24.796-1855.5-1275.2-1828.3-1332.4 4.617-25.01-1855.5-1275.2-1829.3-1332.6 3.597-25.175-1855.5-1275.2-1830.3-1332.7 2.587-25.3-1855.5-1275.2-1831.3-1332.8 1.582-25.382-1855.5-1275.2-1832.3-1332.8.587-25.425-1855.5-1275.2-1833.3-1332.8-.404-25.428-1855.5-1275.2-1834.3-1332.8-1.388-25.394-1855.5-1275.2-1835.3-1332.7-2.37-25.321-1855.5-1275.2-1836.3-1332.6-3.35-25.21-1855.5-1275.2-1837.3-1332.5-4.326-25.061-1855.5-1275.2-1838.2-1332.3-5.306-24.872-1855.5-1275.2-1839.2-1332.1-6.287-24.642-1855.5-1275.2-1840.2-1331.8-7.272-24.37-1855.5-1275.2-1841.2-1331.5-8.263-24.052-1855.5-1275.2-1842.2-1331.1-9.257-23.686-1855.5-1275.2-1843.2-1330.7-10.26-23.27-1855.5-1275.2-1844.2-1330.2-11.27-22.798-1855.5-1275.2-1845.2-1329.7-12.286-22.266-1855.5-1275.2-1846.2-1329.1-13.307-21.672-1855.5-1275.2-1847.3-1328.4-14.332-21.008-1855.5-1275.2-1848.3-1327.7-15.356-20.27-1855.5-1275.2-1849.3-1326.9-16.377-19.455-1855.5-1275.2-1850.3-1326-17.388-18.556-1855.5-1275.2-1851.3-1325-18.382-17.572-1855.5-1275.2-1852.3-1323.9-19.35-16.501-1855.5-1275.2-1396.6-978.96-1403.5-983.87a419 419 0 0 0-21.163-14.098 411 411 0 0 0-21.987-12.775c-56.972-30.781-122.39-48.611-195.32-49.185zm93.012-1426.3c5.397 243.28-157.73 455.35-353.17 669.04-1.318-8.229 4.656-36.353 1379.4 944.21-1855.5-1275.2-1836.7-1331.7-3.75-24.335-1855.5-1275.2-1836.6-1331.8-3.638-24.351-1855.5-1275.2-1836.4-1331.8-3.508-24.371-1855.5-1275.2-1836.3-1331.8-3.356-24.392-1855.5-1275.2-1836.1-1331.8-3.174-24.416-1855.5-1275.2-1835.9-1331.9-2.953-24.445-1855.5-1275.2-1835.6-1331.9-2.676-24.476-1855.5-1275.2-1835.2-1331.9-2.315-24.512-1855.5-1275.2-1834.7-1332-1.82-24.554-1855.5-1275.2-1834-1332-1.08-24.588-1855.5-1275.2-1832.3-1332.6.584-25.222-1855.5-1275.2-1831.9-1332.6 1.03-25.208-1855.5-1275.2-1831.4-1332.6 1.486-25.185-1855.5-1275.2-1831-1332.6 1.962-25.152-1855.5-1275.2-1830.5-1332.5 2.452-25.109-1855.5-1275.2-1830-1332.5 2.96-25.054-1855.5-1275.2-1829.4-1332.4 3.488-24.986-1855.5-1275.2-1828.9-1332.3 4.035-24.904-1855.5-1275.2-1828.3-1332.2 4.604-24.805-1855.5-1275.2-1827.7-1332.1 5.197-24.687-1855.5-1275.2-1827.1-1332 5.816-24.549-1855.5-1275.2-1826.5-1331.8 6.462-24.386-1855.5-1275.2-1825.8-1331.6 7.14-24.196-1855.5-1275.2-1825.1-1331.4 7.854-23.974-1855.5-1275.2-1824.3-1331.1 8.605-23.715-1855.5-1275.2-1823.5-1330.8 9.4-23.411-1855.5-1275.2-1822.7-1330.5 10.244-23.054-1855.5-1275.2-1821.8-1330 11.145-22.632-1855.5-1275.2-1820.8-1329.5 12.112-22.129-1855.5-1275.2-1819.8-1328.9 13.156-21.524-1855.5-1275.2-1818.6-1328.2 14.29-20.787-1855.5-1275.2-1817.4-1327.3 15.533-19.875-1855.5-1275.2-1816-1326.1 16.9-18.723-1855.5-1275.2-1814.5-1324.6 18.417-17.23-1855.5-1275.2-1812.8-1322.7 20.089-15.239-1855.5-1275.2-1811-1319.9 21.89-12.497-1855.5-1275.2-1809.3-1316 23.668-8.62-1855.5-1275.2-1808-1310.6 24.96-3.169-1855.5-1275.2-1808.1-1303.5 24.833 3.866-1855.5-1275.2-1367.8-962.27-1360.7-957.29 37.394 26.305 62.498 87.22 62.498 184.64zm532.9 2845.7c-1855.5-1275.2-1832.6-1332.6.35-25.145-1855.5-1275.2-1831.9-1332.5 1.075-25.124-1855.5-1275.2-1831.1-1332.5 1.833-25.08-1855.5-1275.2-1830.3-1332.4 2.623-25.01-1855.5-1275.2-1829.5-1332.3 3.444-24.909-1855.5-1275.2-1828.6-1332.2 4.292-24.778-1855.5-1275.2-1827.8-1332 5.161-24.611-1855.5-1275.2-1826.9-1331.8 6.049-24.409-1855.5-1275.2-1826-1331.6 6.946-24.168-1855.5-1275.2-1825.1-1331.3 7.845-23.891-1855.5-1275.2-1824.2-1331 8.74-23.579-1855.5-1275.2-1823.3-1330.6 9.622-23.233-1855.5-1275.2-1822.4-1330.3 10.48-22.858-1855.5-1275.2-1821.6-1329.9 11.313-22.458-1855.5-1275.2-1820.8-1329.5 12.108-22.039-1855.5-1275.2-1820.1-1329 12.862-21.608-1855.5-1275.2-1819.4-1328.6 13.569-21.171-1855.5-1275.2-1818.7-1328.1 14.228-20.734-1855.5-1275.2-1818.1-1327.7 14.836-20.304-1855.5-1275.2-1817.5-1327.3 15.393-19.885-1855.5-1275.2-1817-1326.9 15.898-19.484-1855.5-1275.2-1816.6-1326.5 16.352-19.104-1855.5-1275.2-1816.2-1326.2 16.758-18.749-1855.5-1275.2-1815.8-1325.8 17.117-18.422-1855.5-1275.2-1815.5-1325.5 17.432-18.124-1855.5-1275.2-1815.2-1325.3 17.704-17.858-1855.5-1275.2-1815-1325 17.937-17.624-1855.5-1275.2-1814.8-1324.8 18.133-17.424-1855.5-1275.2-1814.6-1324.7 18.292-17.256-1855.5-1275.2-1814.5-1324.5 18.419-17.121-1855.5-1275.2-1814.4-1324.4 18.513-17.018-1855.5-1275.2-1814.3-1324.4 18.577-16.948-1855.5-1275.2-1814.3-1324.3 18.613-16.91-1855.5-1275.2-1814.3-1324.3 18.62-16.902-1855.5-1275.2-1814.3-1324.3 18.6-16.924-1855.5-1275.2-1814.4-1324.4 18.553-16.974-1855.5-1275.2-1814.4-1324.5 18.48-17.053-1855.5-1275.2-1814.5-1324.6 18.385-17.158-1855.5-1275.2-1814.7-1324.7 18.26-17.289-1391.6-956.42-1371.1-980.11-1365.1-985.96 23.81 127.35 49.287 260.68 75.259 395.77-291.53 108.13-453.19 485.76-189.67 730.33a516 516 0 0 0 18.907 16.698 547 547 0 0 0 19.679 15.782 581 581 0 0 0 20.365 14.884c6.792 4.744-428.75-324.87 1404.2 982.54-1855.5-1275.2-1811.4-1294.2 21.512 13.173-1855.5-1275.2-1810.9-1295 21.988 12.365-1855.5-1275.2-1810.5-1295.8 22.406 11.589-1391.6-956.42-1368.2-961.22-1360.4-957.68-6.382-5.644-10.023-29.031 1364.7 951.53-1855.5-1275.2-1850.8-1325.1-17.87-17.688-1855.5-1275.2-1850.1-1325.8-17.135-18.399-1855.5-1275.2-1849.2-1326.5-16.321-19.125-1855.5-1275.2-1848.3-1327.3-15.416-19.861-1855.5-1275.2-1847.3-1328-14.414-20.6-1855.5-1275.2-1846.2-1328.7-13.305-21.332-1855.5-1275.2-1845-1329.5-12.085-22.046-1855.5-1275.2-1843.7-1330.1-10.748-22.727-1855.5-1275.2-1842.2-1330.8-9.294-23.359-1855.5-1275.2-1840.7-1331.3-7.724-23.924-1855.5-1275.2-1839-1331.8-6.045-24.402-1855.5-1275.2-1837.2-1332.2-4.268-24.774-1855.5-1275.2-1835.3-1332.4-2.41-25.023-1855.5-1275.2-1833.4-1332.5-.491-25.133-1855.5-1275.2-1831.5-1332.5 1.467-25.095-1855.5-1275.2-1829.5-1332.3 3.44-24.901-1855.5-1275.2-1827.5-1332 5.403-24.55-1855.5-1275.2-1825.6-1331.5 7.336-24.043-1855.5-1275.2-1823.7-1330.8 9.222-23.385-1855.5-1275.2-1821.9-1330 11.044-22.582-1855.5-1275.2-1820.1-1329.1 12.792-21.639-1855.5-1275.2-1818.5-1328 14.46-20.564-1855.5-1275.2-1816.9-1326.8 16.036-19.357-1855.5-1275.2-1815.4-1325.4 17.523-18.023-1855.5-1275.2-1814-1324 18.911-16.561-1855.5-1275.2-1812.7-1322.4 20.195-14.968-1855.5-1275.2-1811.6-1320.7 21.366-13.242-1855.5-1275.2-1810.5-1318.8 22.412-11.381-1855.5-1275.2-1809.6-1316.8 23.318-9.385-1391.6-956.42-1367.3-973.73-1359.1-975.78 53.294 276.52 106 550.81 148.13 786.87-57.195 20.686-124.25 32.767-202.19 33.311-71.8 0-170.05-17.488-265.51-63.973a613 613 0 0 1-22.274-11.412 600 600 0 0 1-21.784-12.322 584 584 0 0 1-21.243-13.232 572 572 0 0 1-20.652-14.138c-6.737-4.833-469.73-353.92 1363.2 953.49-1855.5-1275.2-1852.2-1323.3-19.308-15.924-1855.5-1275.2-1851.5-1324.2-18.555-16.794-1855.5-1275.2-1850.7-1325.1-17.752-17.641-1855.5-1275.2-1849.8-1325.9-16.9-18.459-1855.5-1275.2-1848.9-1326.7-16.003-19.241-1855.5-1275.2-1848-1327.4-15.068-19.982-1855.5-1275.2-1847-1328.1-14.1-20.676-1855.5-1275.2-1846-1328.7-13.11-21.319-1855.5-1275.2-1845-1329.3-12.1-21.907-1855.5-1275.2-1844-1329.9-11.082-22.44-1855.5-1275.2-1843-1330.3-10.063-22.915-1855.5-1275.2-1842-1330.7-9.05-23.334-1855.5-1275.2-1841-1331.1-8.052-23.696-1855.5-1275.2-1840-1331.4-7.073-24.007-1855.5-1275.2-1839-1331.7-6.118-24.268-1855.5-1275.2-1838.1-1331.9-5.193-24.483-1855.5-1275.2-1837.2-1332.1-4.297-24.656-1855.5-1275.2-1836.4-1332.2-3.437-24.79-1855.5-1275.2-1835.5-1332.3-2.612-24.891-1855.5-1275.2-1834.7-1332.4-1.82-24.962-1855.5-1275.2-1834-1332.4-1.068-25.005-1855.5-1275.2-1833.3-1332.4-.348-25.036zm-542.67-408.58c-1.582-8.258 3.722-36.943 1378.4 943.62-1855.5-1275.2-1837.7-1332.3-4.804-24.905-1855.5-1275.2-1837.8-1332.3-4.825-24.902-1855.5-1275.2-1837.8-1332.3-4.844-24.899-1855.5-1275.2-1837.8-1332.3-4.86-24.896-1855.5-1275.2-1837.8-1332.3-4.877-24.892-1855.5-1275.2-1837.8-1332.3-4.892-24.889-1855.5-1275.2-1837.8-1332.3-4.905-24.886-1855.5-1275.2-1837.8-1332.3-4.92-24.884-1855.5-1275.2-1837.9-1332.3-4.93-24.882-1855.5-1275.2-1837.9-1332.3-4.941-24.879-1855.5-1275.2-1837.9-1332.3-4.952-24.877-1855.5-1275.2-1837.9-1332.3-4.96-24.875-1855.5-1275.2-1837.9-1332.3-4.97-24.873-1855.5-1275.2-1837.9-1332.3-4.978-24.872-1855.5-1275.2-1837.9-1332.3-4.985-24.871-1855.5-1275.2-1837.9-1332.3-4.991-24.869-1855.5-1275.2-1837.9-1332.3-4.997-24.867-1855.5-1275.2-1837.9-1332.3-5.002-24.866-1855.5-1275.2-1837.9-1332.3-5.007-24.866-1855.5-1275.2-1837.9-1332.3-5.01-24.866-1855.5-1275.2-1837.9-1332.3-5.014-24.865-1855.5-1275.2-1837.9-1332.3-5.017-24.864-1855.5-1275.2-1837.9-1332.3-5.019-24.864-1855.5-1275.2-1837.9-1332.3-5.02-24.864-1855.5-1275.2-1837.9-1332.3-5.021-24.863-1855.5-1275.2-1837.9-1332.3-5.022-24.863-1855.5-1275.2-1837.9-1332.3-5.022-24.864-1855.5-1275.2-1837.9-1332.3-5.022-24.864-1855.5-1275.2-1837.9-1332.3-5.02-24.864-1391.6-956.42-1386.5-985.12-1388.2-993.41 8.651-.55 17.355-.72 26.107-.396 8.535 0 33.723-11.03 1408.4 969.53-1855.5-1275.2-1807.9-1304.4 25.052 3.056-1855.5-1275.2-1808.2-1302.3 24.706 5.15-1855.5-1275.2-1808.7-1300.2 24.177 7.24-1855.5-1275.2-1809.5-1298.1 23.469 9.28-1855.5-1275.2-1810.3-1296.2 22.6 11.234-1855.5-1275.2-1811.3-1294.3 21.593 13.065-1855.5-1275.2-1369.4-958.96-1362.7-953.77a335 335 0 0 1 19.28 16.287c183.56 167.22 199.09 546.78-79.047 690.51z"/></svg>