<?xml version='1.0' encoding='utf-8'?>
<svg xmlns="http://www.w3.org/2000/svg" enable-background="new 0 0 2737.5762 5000" version="1.1" viewBox="0 0 2737.6 5e3"> <path d="m899.09 1967.1c-7.8262 0.0822-15.606 0.3602-23.337 0.8275-31.61 1.9109-62.389 6.9877-92.084 14.795-1.6466-8.2365 3.5775-36.7 1378.3 943.86-1855.5-1275.2-1837.8-1332.1-4.9185-24.667-1855.5-1275.2-1837.8-1332.1-4.9093-24.668-1855.5-1275.2-1837.8-1332.1-4.8999-24.671-1855.5-1275.2-1837.8-1332.1-4.8889-24.673-1855.5-1275.2-1837.8-1332.1-4.8777-24.675-1855.5-1275.2-1837.8-1332.1-4.8655-24.678-1855.5-1275.2-1837.8-1332.1-4.8525-24.68-1855.5-1275.2-1837.8-1332.1-4.8386-24.684-1855.5-1275.2-1837.7-1332.1-4.8235-24.686-1855.5-1275.2-1837.7-1332.1-4.8074-24.69-1855.5-1275.2-1837.7-1332.1-4.7903-24.692-1855.5-1275.2-1837.7-1332.1-4.772-24.696-1855.5-1275.2-1837.7-1332.1-4.7524-24.7-1855.5-1275.2-1837.7-1332.1-4.7317-24.704-1855.5-1275.2-1837.6-1332.1-4.709-24.708-1391.6-956.42-1386.3-985.04-1387.9-993.23 5.8488-5.967 25.98-30.095 1400.7 950.46-1855.5-1275.2-1815.7-1325.7 17.226-18.3-1855.5-1275.2-1816-1326 16.951-18.555-1855.5-1275.2-1816.3-1326.2 16.653-18.823-1855.5-1275.2-1816.6-1326.5 16.331-19.103-1855.5-1275.2-1816.9-1326.8 15.985-19.394-1855.5-1275.2-1817.3-1327.1 15.616-19.691-1855.5-1275.2-1817.7-1327.4 15.226-19.995-1855.5-1275.2-1818.1-1327.7 14.814-20.302-1855.5-1275.2-1818.5-1328 14.382-20.61-1855.5-1275.2-1819-1328.3 13.932-20.917-1855.5-1275.2-1819.5-1328.6 13.464-21.221-1855.5-1275.2-1819.9-1328.9 12.982-21.519-1855.5-1275.2-1820.4-1329.2 12.486-21.811-1855.5-1275.2-1820.9-1329.5 11.977-22.093-1855.5-1275.2-1821.5-1329.8 11.46-22.367-1855.5-1275.2-1822-1330 10.935-22.628-1855.5-1275.2-1822.5-1330.3 10.405-22.876-1855.5-1275.2-1823.1-1330.5 9.8713-23.111-1855.5-1275.2-1823.6-1330.7 9.3367-23.333-1855.5-1275.2-1824.1-1331 8.8022-23.54-1855.5-1275.2-1824.7-1331.1 8.2705-23.731-1855.5-1275.2-1825.2-1331.3 7.7429-23.909-1855.5-1275.2-1825.7-1331.5 7.2207-24.072-1855.5-1275.2-1826.2-1331.6 6.7061-24.22-1855.5-1275.2-1826.7-1331.8 6.1993-24.356-1855.5-1275.2-1827.2-1331.9 5.7014-24.476-1855.5-1275.2-1827.7-1332 5.2144-24.585-1855.5-1275.2-1828.2-1332.1 4.7378-24.681-1855.5-1275.2-1828.7-1332.2 4.2726-24.766-1855.5-1275.2-1829.1-1332.3 3.8193-24.839-1855.5-1275.2-1829.5-1332.3 3.3785-24.904-1855.5-1275.2-1830-1332.4 2.9497-24.958-1855.5-1275.2-1830.4-1332.4 2.5334-25.004-1855.5-1275.2-1830.8-1332.5 2.1297-25.041-1855.5-1275.2-1831.2-1332.5 1.738-25.07-1855.5-1275.2-1831.6-1332.5 1.3591-25.094-1855.5-1275.2-1831.9-1332.5 0.992-25.112-1855.5-1275.2-1832.3-1332.5 0.6367-25.123-1855.5-1275.2-1832.6-1332.5 0.2932-25.13-1855.5-1275.2-1833-1332.6-0.0396-25.153-1855.5-1275.2-1833.1-1332.3-0.1521-24.905-1855.5-1275.2-1833.5-1332.3-0.5452-24.9-1855.5-1275.2-1833.9-1332.3-0.9419-24.888-1855.5-1275.2-1834.3-1332.3-1.343-24.869-1855.5-1275.2-1834.7-1332.3-1.7497-24.844-1855.5-1275.2-1835.1-1332.2-2.1633-24.812-1855.5-1275.2-1835.5-1332.2-2.5845-24.771-1855.5-1275.2-1835.9-1332.1-3.0156-24.722-1855.5-1275.2-1836.4-1332.1-3.458-24.664-1855.5-1275.2-1836.8-1332-3.9141-24.596-1855.5-1275.2-1837.3-1331.9-4.3862-24.516-1855.5-1275.2-1837.8-1331.8-4.8774-24.423-1855.5-1275.2-1838.3-1331.7-5.3911-24.314-1855.5-1275.2-1838.9-1331.6-5.9317-24.188-1855.5-1275.2-1839.4-1331.5-6.5049-24.041-1855.5-1275.2-1840-1331.3-7.1169-23.866-1855.5-1275.2-1840.7-1331.1-7.7764-23.659-1855.5-1275.2-1841.4-1330.8-8.4944-23.411-1855.5-1275.2-1842.2-1330.5-9.2852-23.11-1855.5-1275.2-1843.1-1330.1-10.167-22.735-1855.5-1275.2-1844.1-1329.7-11.165-22.26-1855.5-1275.2-1845.2-1329.1-12.316-21.643-1855.5-1275.2-1846.6-1328.2-13.666-20.815-1855.5-1275.2-1848.2-1327.1-15.28-19.656-1855.5-1275.2-1850.2-1325.4-17.239-17.954-1855.5-1275.2-1396.2-979.56-1402.8-983.85-15.221-9.8747-30.823-15.329-46.553-15.866-147.22-3.9728-319.09 361.14-313.33 686.9 1.3159 99.453 30.954 300.82 75.106 554.33-277.3 298.09-599.89 603.49-599.89 1004.9-2.6409 219.76 73.657 475.62 244.92 645.14 5.9835 5.9229 12.083 11.74 18.299 17.447 6.1997 5.6917 12.516 11.273 18.948 16.74 6.4106 5.448 12.937 10.782 19.58 15.996 6.615 5.1921 13.346 10.266 20.192 15.215 6.8116 4.9246-428.95-324.49 1404 982.93-1855.5-1275.2-1811.6-1293.9 21.341 13.556-1855.5-1275.2-1811.1-1294.7 21.871 12.684-1855.5-1275.2-1810.6-1295.6 22.367 11.788-1855.5-1275.2-1810.1-1296.5 22.825 10.874-1855.5-1275.2-1809.7-1297.5 23.245 9.9448-1855.5-1275.2-1809.3-1298.4 23.624 9.0076-1855.5-1275.2-1809-1299.3 23.962 8.0663-1855.5-1275.2-1808.7-1300.3 24.257 7.1265-1855.5-1275.2-1808.4-1301.2 24.513 6.1931-1855.5-1275.2-1808.2-1302.1 24.728 5.2708-1855.5-1275.2-1808-1303.1 24.904 4.3633-1855.5-1275.2-1807.9-1303.9 25.044 3.4744-1855.5-1275.2-1807.8-1304.8 25.148 2.6072-1855.5-1275.2-1807.7-1305.6 25.222 1.7644-1855.5-1275.2-1807.7-1306.5 25.266 0.9473-1855.5-1275.2-1807.6-1307.3 25.289 0.1577-1855.5-1275.2-1809-1307.8 23.927-0.4221-1855.5-1275.2-1809-1308.4 23.908-1.0276-1855.5-1275.2-1809.1-1309.1 23.872-1.6582-1855.5-1275.2-1809.1-1309.7 23.817-2.3152-1855.5-1275.2-1809.2-1310.4 23.741-2.9976-1855.5-1275.2-1809.3-1311.1 23.641-3.7061-1855.5-1275.2-1809.4-1311.9 23.514-4.4397-1855.5-1275.2-1809.6-1312.6 23.358-5.1978-1391.6-956.42-1367.6-972.4-1360-974.5 46.94 267.47 78.286 478.59 78.112 576 1.2772 298.67-291.89 388.22-433.75 309.81-7.5605-4.179-471.05-352.85 1361.9 954.56-1855.5-1275.2-1851.7-1324.7-18.76-17.244-1855.5-1275.2-1848.2-1327.8-15.306-20.364-1855.5-1275.2-1844-1330.3-11.088-22.933-1855.5-1275.2-1839.4-1332-6.5148-24.629-1391.6-956.42-1385.3-985.09-1385.3-993.92 0 0-0.2846-1.2458 1.7449-7.4966 6.3428 0.6423 12.774 0.9861 19.282 0.9861 8.5138 0 33.624-13.689 1408.3 966.87-1855.5-1275.2-1808.2-1312.4 24.677-4.9712-1855.5-1275.2-1809.1-1315.6 23.794-8.2188-1855.5-1275.2-1810.4-1318.7 22.491-11.307-1855.5-1275.2-1812.1-1321.6 20.808-14.169-1855.5-1275.2-1814.1-1324.2 18.782-16.762-1855.5-1275.2-1816.5-1326.5 16.451-19.056-1855.5-1275.2-1819.1-1328.4 13.848-21.023-1855.5-1275.2-1821.9-1330.1 11.008-22.64-1855.5-1275.2-1824.9-1331.3 7.9771-23.876-1855.5-1275.2-1828.1-1332.1 4.8145-24.71-1855.5-1275.2-1831.3-1332.5 1.6011-25.124-1855.5-1275.2-1834.5-1332.5-1.6006-25.126-1855.5-1275.2-1837.7-1332.1-4.8132-24.712-1855.5-1275.2-1840.9-1331.3-7.9753-23.879-1855.5-1275.2-1843.9-1330.1-11.007-22.643-1855.5-1275.2-1846.8-1328.4-13.847-21.027-1855.5-1275.2-1849.4-1326.5-16.45-19.059-1855.5-1275.2-1851.7-1324.2-18.782-16.765-1855.5-1275.2-1396.8-978.43-1404-982.7-28.245-16.629-61.074-26.157-96.088-26.157-59.528 0-112.38 27.606-154.04 64.466-42.498 37.607-77.566 103.39-78.787 230.49 0 66.257 33.179 127.65 85.885 177.84 6.0668 5.7773 12.392 11.406 18.956 16.877 6.4406 5.3684 13.11 10.585 19.99 15.64 6.7632 4.97-428.85-324.45 1404.1 982.96-1855.5-1275.2-1811.3-1294.2 21.647 13.254-1855.5-1275.2-1810.6-1295.3 22.315 12.096-1855.5-1275.2-1810-1296.5 22.898 10.953-1855.5-1275.2-1809.5-1297.6 23.407 9.8169-1855.5-1275.2-1809.1-1298.7 23.852 8.6802-1855.5-1275.2-1808.7-1299.9 24.238 7.5352-1855.5-1275.2-1808.4-1301 24.569 6.374-1855.5-1275.2-1808.1-1302.2 24.847 5.1865-1855.5-1275.2-1807.9-1303.4 25.071 3.9673-1855.5-1275.2-1807.7-1304.7 25.238 2.7061-1855.5-1275.2-1807.6-1306 25.344 1.396-1855.5-1275.2-1807.5-1307.4 25.382 0.0292-1855.5-1275.2-1807.6-1308.8 25.343-1.4004-1855.5-1275.2-1807.7-1310.3 25.215-2.897-1855.5-1275.2-1807.9-1311.9 24.985-4.4639-1855.5-1275.2-1808.3-1313.5 24.637-6.0977-1855.5-1275.2-1808.8-1315.2 24.154-7.7925-1855.5-1275.2-1809.4-1316.9 23.52-9.5342-1855.5-1275.2-1810.2-1318.7 22.723-11.302-1855.5-1275.2-1811.2-1320.5 21.755-13.068-1855.5-1275.2-1812.3-1322.2 20.618-14.796-1855.5-1275.2-1813.6-1323.9 19.324-16.451-1855.5-1275.2-1815-1325.4 17.896-17.993-1855.5-1275.2-1816.6-1326.8 16.367-19.396-1855.5-1275.2-1818.2-1328 14.775-20.634-1855.5-1275.2-1819.8-1329.1 13.16-21.7-1855.5-1275.2-1821.4-1330 11.557-22.596-1855.5-1275.2-1822.9-1330.7 9.9976-23.328-1855.5-1275.2-1824.4-1331.3 8.5032-23.914-1855.5-1275.2-1825.8-1331.8 7.0881-24.371-1855.5-1275.2-1827.2-1332.1 5.7607-24.719-1855.5-1275.2-1828.4-1332.4 4.5242-24.976-1855.5-1275.2-1829.6-1332.6 3.3762-25.155-1855.5-1275.2-1830.6-1332.7 2.3149-25.277-1855.5-1275.2-1831.6-1332.8 1.3345-25.348-1855.5-1275.2-1832.5-1332.8 0.4294-25.389-1855.5-1275.2-1833.4-1332.7-0.4985-25.289-1855.5-1275.2-1834.5-1332.7-1.6187-25.245-1855.5-1275.2-1835.2-1332.6-2.2798-25.194-1855.5-1275.2-1835.7-1332.6-2.7273-25.15-1855.5-1275.2-1836-1332.5-3.0549-25.113-1855.5-1275.2-1836.2-1332.5-3.3074-25.079-1855.5-1275.2-1836.4-1332.5-3.5093-25.052-1855.5-1275.2-1836.6-1332.4-3.6755-25.03-1855.5-1275.2-1836.7-1332.4-3.8149-25.008-1855.5-1275.2-1836.9-1332.4-3.9336-24.99-1855.5-1275.2-1837-1332.4-4.0364-24.974-1855.5-1275.2-1837.1-1332.4-4.1265-24.96-1855.5-1275.2-1837.1-1332.4-4.2056-24.945-1855.5-1275.2-1837.2-1332.3-4.2764-24.934-1855.5-1275.2-1837.3-1332.3-4.3396-24.923-1855.5-1275.2-1837.3-1332.3-4.3962-24.913-1855.5-1275.2-1837.4-1332.3-4.4482-24.904-1855.5-1275.2-1837.4-1332.3-4.4946-24.894-1855.5-1275.2-1837.5-1332.3-4.5376-24.887-1855.5-1275.2-1837.5-1332.3-4.5769-24.881-1855.5-1275.2-1837.5-1332.3-4.6128-24.873-1855.5-1275.2-1837.6-1332.3-4.6462-24.868-1391.6-956.42-1386.3-985.06-1387.9-993.41 8.0159-3.0127 32.122-21.47 1406.8 959.09-1855.5-1275.2-1809.7-1317.8 23.199-10.422-1855.5-1275.2-1810.2-1318.8 22.724-11.42-1855.5-1275.2-1810.7-1319.8 22.19-12.423-1855.5-1275.2-1811.3-1320.8 21.599-13.426-1855.5-1275.2-1812-1321.8 20.948-14.42-1855.5-1275.2-1812.7-1322.8 20.239-15.398-1855.5-1275.2-1813.5-1323.8 19.475-16.355-1855.5-1275.2-1814.3-1324.7 18.658-17.28-1855.5-1275.2-1815.1-1325.6 17.794-18.169-1855.5-1275.2-1816-1326.4 16.886-19.016-1855.5-1275.2-1817-1327.2 15.941-19.814-1855.5-1275.2-1818-1328 14.965-20.562-1855.5-1275.2-1819-1328.7 13.963-21.255-1855.5-1275.2-1820-1329.3 12.942-21.891-1855.5-1275.2-1821-1329.9 11.908-22.471-1855.5-1275.2-1822.1-1330.4 10.864-22.994-1855.5-1275.2-1823.1-1330.9 9.8159-23.46-1855.5-1275.2-1824.2-1331.3 8.7673-23.872-1855.5-1275.2-1825.2-1331.6 7.7209-24.231-1855.5-1275.2-1826.2-1332 6.6797-24.539-1855.5-1275.2-1827.3-1332.2 5.6443-24.797-1855.5-1275.2-1828.3-1332.4 4.6169-25.009-1855.5-1275.2-1829.3-1332.6 3.5977-25.176-1855.5-1275.2-1830.3-1332.7 2.5862-25.3-1855.5-1275.2-1831.3-1332.8 1.5825-25.382-1855.5-1275.2-1832.3-1332.8 0.5867-25.425-1855.5-1275.2-1833.3-1332.8-0.4038-25.428-1855.5-1275.2-1834.3-1332.8-1.3884-25.394-1855.5-1275.2-1835.3-1332.7-2.3699-25.321-1855.5-1275.2-1836.3-1332.6-3.3489-25.21-1855.5-1275.2-1837.3-1332.5-4.3269-25.061-1855.5-1275.2-1838.2-1332.3-5.3059-24.872-1855.5-1275.2-1839.2-1332.1-6.2874-24.642-1855.5-1275.2-1840.2-1331.8-7.272-24.37-1855.5-1275.2-1841.2-1331.5-8.2622-24.052-1855.5-1275.2-1842.2-1331.1-9.2578-23.686-1855.5-1275.2-1843.2-1330.7-10.26-23.27-1855.5-1275.2-1844.2-1330.2-11.27-22.798-1855.5-1275.2-1845.2-1329.7-12.286-22.266-1855.5-1275.2-1846.2-1329.1-13.307-21.672-1855.5-1275.2-1847.3-1328.4-14.332-21.008-1855.5-1275.2-1848.3-1327.7-15.356-20.27-1855.5-1275.2-1849.3-1326.9-16.377-19.455-1855.5-1275.2-1850.3-1326-17.388-18.556-1855.5-1275.2-1851.3-1325-18.382-17.572-1855.5-1275.2-1852.3-1323.9-19.349-16.501-1855.5-1275.2-1396.6-978.96-1403.5-983.87-6.9048-4.9072-13.96-9.6099-21.164-14.098-7.1823-4.4749-14.512-8.7366-21.987-12.775-56.972-30.781-122.39-48.611-195.32-49.185zm93.012-1426.3c5.3967 243.28-157.73 455.35-353.17 669.04-1.3177-8.2286 4.6564-36.353 1379.4 944.21-1855.5-1275.2-1836.7-1331.7-3.75-24.335-1855.5-1275.2-1836.6-1331.8-3.6378-24.351-1855.5-1275.2-1836.4-1331.8-3.5081-24.371-1855.5-1275.2-1836.3-1331.8-3.3559-24.392-1855.5-1275.2-1836.1-1331.8-3.1743-24.416-1855.5-1275.2-1835.9-1331.9-2.9532-24.445-1855.5-1275.2-1835.6-1331.9-2.6759-24.476-1855.5-1275.2-1835.2-1331.9-2.3151-24.512-1855.5-1275.2-1834.7-1332-1.8196-24.554-1855.5-1275.2-1834-1332-1.0806-24.588-1855.5-1275.2-1832.3-1332.6 0.5848-25.222-1855.5-1275.2-1831.9-1332.6 1.0288-25.208-1855.5-1275.2-1831.4-1332.6 1.4873-25.185-1855.5-1275.2-1831-1332.6 1.9614-25.152-1855.5-1275.2-1830.5-1332.5 2.4521-25.109-1855.5-1275.2-1830-1332.5 2.9604-25.054-1855.5-1275.2-1829.4-1332.4 3.4876-24.986-1855.5-1275.2-1828.9-1332.3 4.0348-24.904-1855.5-1275.2-1828.3-1332.2 4.6041-24.805-1855.5-1275.2-1827.7-1332.1 5.197-24.687-1855.5-1275.2-1827.1-1332 5.8157-24.549-1855.5-1275.2-1826.5-1331.8 6.4626-24.386-1855.5-1275.2-1825.8-1331.6 7.1406-24.196-1855.5-1275.2-1825.1-1331.4 7.8535-23.974-1855.5-1275.2-1824.3-1331.1 8.6047-23.715-1855.5-1275.2-1823.5-1330.8 9.3997-23.411-1855.5-1275.2-1822.7-1330.5 10.244-23.054-1855.5-1275.2-1821.8-1330 11.145-22.632-1855.5-1275.2-1820.8-1329.5 12.112-22.129-1855.5-1275.2-1819.8-1328.9 13.156-21.524-1855.5-1275.2-1818.6-1328.2 14.29-20.787-1855.5-1275.2-1817.4-1327.3 15.533-19.875-1855.5-1275.2-1816-1326.1 16.901-18.723-1855.5-1275.2-1814.5-1324.6 18.416-17.23-1855.5-1275.2-1812.8-1322.7 20.089-15.239-1855.5-1275.2-1811-1319.9 21.89-12.497-1855.5-1275.2-1809.3-1316 23.668-8.6201-1855.5-1275.2-1808-1310.6 24.961-3.1684-1855.5-1275.2-1808.1-1303.5 24.832 3.8657-1855.5-1275.2-1367.8-962.27-1360.7-957.29 37.394 26.305 62.498 87.219 62.498 184.64zm532.9 2845.7c-1855.5-1275.2-1832.6-1332.6 0.3505-25.145-1855.5-1275.2-1831.9-1332.5 1.0745-25.124-1855.5-1275.2-1831.1-1332.5 1.8326-25.08-1855.5-1275.2-1830.3-1332.4 2.6232-25.01-1855.5-1275.2-1829.5-1332.3 3.4441-24.909-1855.5-1275.2-1828.6-1332.2 4.2917-24.778-1855.5-1275.2-1827.8-1332 5.1617-24.611-1855.5-1275.2-1826.9-1331.8 6.0487-24.409-1855.5-1275.2-1826-1331.6 6.9456-24.168-1855.5-1275.2-1825.1-1331.3 7.8453-23.891-1855.5-1275.2-1824.2-1331 8.7402-23.579-1855.5-1275.2-1823.3-1330.6 9.6215-23.233-1855.5-1275.2-1822.4-1330.3 10.481-22.858-1855.5-1275.2-1821.6-1329.9 11.312-22.458-1855.5-1275.2-1820.8-1329.5 12.108-22.039-1855.5-1275.2-1820.1-1329 12.862-21.608-1855.5-1275.2-1819.4-1328.6 13.569-21.171-1855.5-1275.2-1818.7-1328.1 14.228-20.734-1855.5-1275.2-1818.1-1327.7 14.836-20.304-1855.5-1275.2-1817.5-1327.3 15.393-19.885-1855.5-1275.2-1817-1326.9 15.898-19.484-1855.5-1275.2-1816.6-1326.5 16.352-19.104-1855.5-1275.2-1816.2-1326.2 16.758-18.749-1855.5-1275.2-1815.8-1325.8 17.117-18.422-1855.5-1275.2-1815.5-1325.5 17.432-18.124-1855.5-1275.2-1815.2-1325.3 17.704-17.858-1855.5-1275.2-1815-1325 17.937-17.624-1855.5-1275.2-1814.8-1324.8 18.133-17.424-1855.5-1275.2-1814.6-1324.7 18.292-17.256-1855.5-1275.2-1814.5-1324.5 18.419-17.121-1855.5-1275.2-1814.4-1324.4 18.513-17.018-1855.5-1275.2-1814.3-1324.4 18.577-16.948-1855.5-1275.2-1814.3-1324.3 18.613-16.91-1855.5-1275.2-1814.3-1324.3 18.62-16.902-1855.5-1275.2-1814.3-1324.3 18.6-16.924-1855.5-1275.2-1814.4-1324.4 18.553-16.974-1855.5-1275.2-1814.4-1324.5 18.481-17.053-1855.5-1275.2-1814.5-1324.6 18.384-17.158-1855.5-1275.2-1814.7-1324.7 18.261-17.289-1391.6-956.42-1371.1-980.11-1365.1-985.96 23.81 127.35 49.286 260.68 75.258 395.77-291.53 108.13-453.19 485.76-189.67 730.33 6.0751 5.6384 12.376 11.206 18.907 16.698 6.342 5.3335 12.901 10.596 19.679 15.782 6.5802 5.0344 13.368 9.9973 20.365 14.884 6.7924 4.7441-428.75-324.87 1404.2 982.54-1855.5-1275.2-1811.4-1294.2 21.512 13.173-1855.5-1275.2-1810.9-1295 21.988 12.365-1855.5-1275.2-1810.5-1295.8 22.406 11.589-1391.6-956.42-1368.2-961.22-1360.4-957.68-6.3811-5.644-10.023-29.031 1364.7 951.53-1855.5-1275.2-1850.8-1325.1-17.869-17.688-1855.5-1275.2-1850.1-1325.8-17.136-18.399-1855.5-1275.2-1849.2-1326.5-16.321-19.125-1855.5-1275.2-1848.3-1327.3-15.416-19.861-1855.5-1275.2-1847.3-1328-14.414-20.6-1855.5-1275.2-1846.2-1328.7-13.305-21.332-1855.5-1275.2-1845-1329.5-12.085-22.046-1855.5-1275.2-1843.7-1330.1-10.748-22.727-1855.5-1275.2-1842.2-1330.8-9.2937-23.359-1855.5-1275.2-1840.7-1331.3-7.7238-23.924-1855.5-1275.2-1839-1331.8-6.0448-24.402-1855.5-1275.2-1837.2-1332.2-4.2683-24.774-1855.5-1275.2-1835.3-1332.4-2.4103-25.023-1855.5-1275.2-1833.4-1332.5-0.491-25.133-1855.5-1275.2-1831.5-1332.5 1.4672-25.095-1855.5-1275.2-1829.5-1332.3 3.4396-24.901-1855.5-1275.2-1827.5-1332 5.4033-24.55-1855.5-1275.2-1825.6-1331.5 7.3367-24.043-1855.5-1275.2-1823.7-1330.8 9.2219-23.385-1855.5-1275.2-1821.9-1330 11.044-22.582-1855.5-1275.2-1820.1-1329.1 12.792-21.639-1855.5-1275.2-1818.5-1328 14.459-20.564-1855.5-1275.2-1816.9-1326.8 16.037-19.357-1855.5-1275.2-1815.4-1325.4 17.523-18.023-1855.5-1275.2-1814-1324 18.911-16.561-1855.5-1275.2-1812.7-1322.4 20.195-14.968-1855.5-1275.2-1811.6-1320.7 21.366-13.242-1855.5-1275.2-1810.5-1318.8 22.412-11.381-1855.5-1275.2-1809.6-1316.8 23.318-9.385-1391.6-956.42-1367.3-973.73-1359.1-975.78 53.294 276.52 106 550.81 148.13 786.87-57.195 20.686-124.25 32.767-202.19 33.311-71.8-5e-4 -170.05-17.488-265.51-63.973-7.4462-3.6257-14.876-7.428-22.274-11.412-7.2957-3.9287-14.561-8.0344-21.784-12.322-7.1276-4.2314-14.213-8.6404-21.243-13.232-6.9415-4.5332-13.83-9.2441-20.652-14.138-6.737-4.8328-469.73-353.92 1363.2 953.49-1855.5-1275.2-1852.2-1323.3-19.308-15.924-1855.5-1275.2-1851.5-1324.2-18.555-16.794-1855.5-1275.2-1850.7-1325.1-17.752-17.641-1855.5-1275.2-1849.8-1325.9-16.9-18.459-1855.5-1275.2-1848.9-1326.7-16.003-19.241-1855.5-1275.2-1848-1327.4-15.068-19.982-1855.5-1275.2-1847-1328.1-14.101-20.676-1855.5-1275.2-1846-1328.7-13.109-21.319-1855.5-1275.2-1845-1329.3-12.1-21.907-1855.5-1275.2-1844-1329.9-11.082-22.44-1855.5-1275.2-1843-1330.3-10.063-22.915-1855.5-1275.2-1842-1330.7-9.0508-23.334-1855.5-1275.2-1841-1331.1-8.052-23.696-1855.5-1275.2-1840-1331.4-7.0728-24.007-1855.5-1275.2-1839-1331.7-6.1182-24.268-1855.5-1275.2-1838.1-1331.9-5.1923-24.483-1855.5-1275.2-1837.2-1332.1-4.2977-24.656-1855.5-1275.2-1836.4-1332.2-3.437-24.79-1855.5-1275.2-1835.5-1332.3-2.6112-24.891-1855.5-1275.2-1834.7-1332.4-1.8213-24.962-1855.5-1275.2-1834-1332.4-1.067-25.005-1855.5-1275.2-1833.3-1332.4-0.3478-25.036zm-542.67-408.58c-1.5818-8.2581 3.7216-36.943 1378.4 943.62-1855.5-1275.2-1837.7-1332.3-4.8044-24.905-1855.5-1275.2-1837.8-1332.3-4.8247-24.902-1855.5-1275.2-1837.8-1332.3-4.8435-24.899-1855.5-1275.2-1837.8-1332.3-4.8608-24.896-1855.5-1275.2-1837.8-1332.3-4.8767-24.892-1855.5-1275.2-1837.8-1332.3-4.8918-24.889-1855.5-1275.2-1837.8-1332.3-4.9055-24.886-1855.5-1275.2-1837.8-1332.3-4.9187-24.884-1855.5-1275.2-1837.9-1332.3-4.9307-24.882-1855.5-1275.2-1837.9-1332.3-4.9414-24.879-1855.5-1275.2-1837.9-1332.3-4.9517-24.877-1855.5-1275.2-1837.9-1332.3-4.9609-24.875-1855.5-1275.2-1837.9-1332.3-4.9697-24.873-1855.5-1275.2-1837.9-1332.3-4.9778-24.872-1855.5-1275.2-1837.9-1332.3-4.9849-24.871-1855.5-1275.2-1837.9-1332.3-4.9912-24.869-1855.5-1275.2-1837.9-1332.3-4.9968-24.867-1855.5-1275.2-1837.9-1332.3-5.002-24.866-1855.5-1275.2-1837.9-1332.3-5.0066-24.866-1855.5-1275.2-1837.9-1332.3-5.0107-24.866-1855.5-1275.2-1837.9-1332.3-5.0139-24.865-1855.5-1275.2-1837.9-1332.3-5.0166-24.864-1855.5-1275.2-1837.9-1332.3-5.0188-24.864-1855.5-1275.2-1837.9-1332.3-5.0205-24.864-1855.5-1275.2-1837.9-1332.3-5.0212-24.863-1855.5-1275.2-1837.9-1332.3-5.022-24.863-1855.5-1275.2-1837.9-1332.3-5.022-24.864-1855.5-1275.2-1837.9-1332.3-5.0215-24.864-1855.5-1275.2-1837.9-1332.3-5.0203-24.864-1391.6-956.42-1386.5-985.12-1388.2-993.41 8.6513-0.55 17.355-0.7205 26.107-0.3958 8.5351-2e-4 33.723-11.031 1408.4 969.53-1855.5-1275.2-1807.9-1304.4 25.052 3.0559-1855.5-1275.2-1808.2-1302.3 24.706 5.1497-1855.5-1275.2-1808.7-1300.2 24.177 7.2393-1855.5-1275.2-1809.5-1298.1 23.469 9.281-1855.5-1275.2-1810.3-1296.2 22.6 11.234-1855.5-1275.2-1811.3-1294.3 21.593 13.065-1855.5-1275.2-1369.4-958.96-1362.7-953.77 6.6176 5.1724 13.046 10.607 19.281 16.287 183.56 167.22 199.09 546.78-79.048 690.51z"/> </svg>